<mxfile host="Electron" modified="2024-10-03T07:09:26.450Z" agent="Mozilla/5.0 (Windows NT 10.0; Win64; x64) AppleWebKit/537.36 (KHTML, like Gecko) draw.io/24.1.0 Chrome/120.0.6099.109 Electron/28.1.0 Safari/537.36" etag="zuTlXMKUrqbswf-Tnmaf" version="24.1.0" type="device">
  <diagram name="Page-1" id="5gX0aP1wRiF853brXbnd">
    <mxGraphModel dx="802" dy="1656" grid="1" gridSize="10" guides="1" tooltips="1" connect="1" arrows="1" fold="1" page="1" pageScale="1" pageWidth="850" pageHeight="1100" math="0" shadow="0">
      <root>
        <mxCell id="0" />
        <mxCell id="1" parent="0" />
        <mxCell id="yw_yIX8SmOpcJ3XKJMX2-1" value="Customer" style="rounded=0;whiteSpace=wrap;html=1;" vertex="1" parent="1">
          <mxGeometry x="50" y="150" width="120" height="60" as="geometry" />
        </mxCell>
        <mxCell id="yw_yIX8SmOpcJ3XKJMX2-2" value="search books" style="ellipse;whiteSpace=wrap;html=1;aspect=fixed;" vertex="1" parent="1">
          <mxGeometry x="320" y="220" width="100" height="100" as="geometry" />
        </mxCell>
        <mxCell id="yw_yIX8SmOpcJ3XKJMX2-3" value="make payment" style="ellipse;whiteSpace=wrap;html=1;aspect=fixed;" vertex="1" parent="1">
          <mxGeometry x="320" y="380" width="100" height="100" as="geometry" />
        </mxCell>
        <mxCell id="yw_yIX8SmOpcJ3XKJMX2-4" value="add books to shopping cart" style="ellipse;whiteSpace=wrap;html=1;aspect=fixed;" vertex="1" parent="1">
          <mxGeometry x="510" y="220" width="100" height="100" as="geometry" />
        </mxCell>
        <mxCell id="yw_yIX8SmOpcJ3XKJMX2-5" value="login" style="ellipse;whiteSpace=wrap;html=1;aspect=fixed;" vertex="1" parent="1">
          <mxGeometry x="510" y="60" width="100" height="100" as="geometry" />
        </mxCell>
        <mxCell id="yw_yIX8SmOpcJ3XKJMX2-6" value="Create account" style="ellipse;whiteSpace=wrap;html=1;aspect=fixed;" vertex="1" parent="1">
          <mxGeometry x="320" y="60" width="100" height="100" as="geometry" />
        </mxCell>
        <mxCell id="yw_yIX8SmOpcJ3XKJMX2-7" value="&lt;font style=&quot;font-size: 18px;&quot;&gt;level 1 dfd&lt;/font&gt;" style="text;html=1;align=center;verticalAlign=middle;resizable=0;points=[];autosize=1;strokeColor=none;fillColor=none;" vertex="1" parent="1">
          <mxGeometry x="295" y="3" width="110" height="40" as="geometry" />
        </mxCell>
        <mxCell id="yw_yIX8SmOpcJ3XKJMX2-8" value="Customer" style="rounded=0;whiteSpace=wrap;html=1;" vertex="1" parent="1">
          <mxGeometry x="50" y="350" width="120" height="60" as="geometry" />
        </mxCell>
        <mxCell id="yw_yIX8SmOpcJ3XKJMX2-9" value="" style="endArrow=classic;html=1;rounded=0;entryX=0;entryY=1;entryDx=0;entryDy=0;" edge="1" parent="1" target="yw_yIX8SmOpcJ3XKJMX2-6">
          <mxGeometry width="50" height="50" relative="1" as="geometry">
            <mxPoint x="170" y="190" as="sourcePoint" />
            <mxPoint x="220" y="140" as="targetPoint" />
          </mxGeometry>
        </mxCell>
        <mxCell id="yw_yIX8SmOpcJ3XKJMX2-11" value="" style="endArrow=classic;html=1;rounded=0;entryX=-0.03;entryY=0.59;entryDx=0;entryDy=0;entryPerimeter=0;" edge="1" parent="1" target="yw_yIX8SmOpcJ3XKJMX2-5">
          <mxGeometry width="50" height="50" relative="1" as="geometry">
            <mxPoint x="420" y="120" as="sourcePoint" />
            <mxPoint x="470" y="70" as="targetPoint" />
          </mxGeometry>
        </mxCell>
        <mxCell id="yw_yIX8SmOpcJ3XKJMX2-13" value="" style="endArrow=classic;html=1;rounded=0;" edge="1" parent="1" target="yw_yIX8SmOpcJ3XKJMX2-4">
          <mxGeometry width="50" height="50" relative="1" as="geometry">
            <mxPoint x="420" y="270" as="sourcePoint" />
            <mxPoint x="470" y="220" as="targetPoint" />
          </mxGeometry>
        </mxCell>
        <mxCell id="yw_yIX8SmOpcJ3XKJMX2-14" value="" style="endArrow=classic;html=1;rounded=0;entryX=1.025;entryY=0.367;entryDx=0;entryDy=0;entryPerimeter=0;exitX=0;exitY=1;exitDx=0;exitDy=0;" edge="1" parent="1" source="yw_yIX8SmOpcJ3XKJMX2-4">
          <mxGeometry width="50" height="50" relative="1" as="geometry">
            <mxPoint x="517" y="302.98" as="sourcePoint" />
            <mxPoint x="170" y="380" as="targetPoint" />
          </mxGeometry>
        </mxCell>
        <mxCell id="yw_yIX8SmOpcJ3XKJMX2-15" value="" style="endArrow=classic;html=1;rounded=0;entryX=0.808;entryY=1.05;entryDx=0;entryDy=0;entryPerimeter=0;" edge="1" parent="1" target="yw_yIX8SmOpcJ3XKJMX2-8">
          <mxGeometry width="50" height="50" relative="1" as="geometry">
            <mxPoint x="325" y="452.02" as="sourcePoint" />
            <mxPoint x="170" y="430" as="targetPoint" />
          </mxGeometry>
        </mxCell>
        <mxCell id="yw_yIX8SmOpcJ3XKJMX2-16" value="" style="endArrow=classic;html=1;rounded=0;" edge="1" parent="1" target="yw_yIX8SmOpcJ3XKJMX2-3">
          <mxGeometry width="50" height="50" relative="1" as="geometry">
            <mxPoint x="170" y="400" as="sourcePoint" />
            <mxPoint x="220" y="350" as="targetPoint" />
          </mxGeometry>
        </mxCell>
        <mxCell id="yw_yIX8SmOpcJ3XKJMX2-17" value="" style="endArrow=classic;html=1;rounded=0;" edge="1" parent="1" target="yw_yIX8SmOpcJ3XKJMX2-2">
          <mxGeometry width="50" height="50" relative="1" as="geometry">
            <mxPoint x="520" y="140" as="sourcePoint" />
            <mxPoint x="570" y="90" as="targetPoint" />
          </mxGeometry>
        </mxCell>
        <mxCell id="yw_yIX8SmOpcJ3XKJMX2-18" value="account details" style="text;html=1;align=center;verticalAlign=middle;resizable=0;points=[];autosize=1;strokeColor=none;fillColor=none;" vertex="1" parent="1">
          <mxGeometry x="180" y="168" width="100" height="30" as="geometry" />
        </mxCell>
        <mxCell id="yw_yIX8SmOpcJ3XKJMX2-19" value="" style="endArrow=classic;html=1;rounded=0;entryX=1;entryY=0.25;entryDx=0;entryDy=0;" edge="1" parent="1" target="yw_yIX8SmOpcJ3XKJMX2-1">
          <mxGeometry width="50" height="50" relative="1" as="geometry">
            <mxPoint x="320" y="120" as="sourcePoint" />
            <mxPoint x="370" y="70" as="targetPoint" />
          </mxGeometry>
        </mxCell>
        <mxCell id="yw_yIX8SmOpcJ3XKJMX2-20" value="Credential" style="text;html=1;align=center;verticalAlign=middle;resizable=0;points=[];autosize=1;strokeColor=none;fillColor=none;" vertex="1" parent="1">
          <mxGeometry x="180" y="110" width="80" height="30" as="geometry" />
        </mxCell>
        <mxCell id="yw_yIX8SmOpcJ3XKJMX2-21" value="list of books" style="text;html=1;align=center;verticalAlign=middle;resizable=0;points=[];autosize=1;strokeColor=none;fillColor=none;" vertex="1" parent="1">
          <mxGeometry x="240" y="330" width="90" height="30" as="geometry" />
        </mxCell>
        <mxCell id="yw_yIX8SmOpcJ3XKJMX2-22" value="payment details" style="text;html=1;align=center;verticalAlign=middle;resizable=0;points=[];autosize=1;strokeColor=none;fillColor=none;" vertex="1" parent="1">
          <mxGeometry x="200" y="380" width="110" height="30" as="geometry" />
        </mxCell>
        <mxCell id="yw_yIX8SmOpcJ3XKJMX2-23" value="receipt" style="text;html=1;align=center;verticalAlign=middle;resizable=0;points=[];autosize=1;strokeColor=none;fillColor=none;" vertex="1" parent="1">
          <mxGeometry x="190" y="428" width="60" height="30" as="geometry" />
        </mxCell>
        <mxCell id="yw_yIX8SmOpcJ3XKJMX2-24" value="1" style="text;html=1;align=center;verticalAlign=middle;whiteSpace=wrap;rounded=0;" vertex="1" parent="1">
          <mxGeometry x="340" y="70" width="60" height="30" as="geometry" />
        </mxCell>
        <mxCell id="yw_yIX8SmOpcJ3XKJMX2-26" value="2" style="text;html=1;align=center;verticalAlign=middle;whiteSpace=wrap;rounded=0;" vertex="1" parent="1">
          <mxGeometry x="530" y="70" width="60" height="30" as="geometry" />
        </mxCell>
        <mxCell id="yw_yIX8SmOpcJ3XKJMX2-27" value="3" style="text;html=1;align=center;verticalAlign=middle;whiteSpace=wrap;rounded=0;" vertex="1" parent="1">
          <mxGeometry x="340" y="230" width="60" height="30" as="geometry" />
        </mxCell>
        <mxCell id="yw_yIX8SmOpcJ3XKJMX2-28" value="4" style="text;html=1;align=center;verticalAlign=middle;whiteSpace=wrap;rounded=0;" vertex="1" parent="1">
          <mxGeometry x="530" y="220" width="60" height="30" as="geometry" />
        </mxCell>
        <mxCell id="yw_yIX8SmOpcJ3XKJMX2-29" value="5" style="text;html=1;align=center;verticalAlign=middle;whiteSpace=wrap;rounded=0;" vertex="1" parent="1">
          <mxGeometry x="340" y="380" width="60" height="30" as="geometry" />
        </mxCell>
        <mxCell id="yw_yIX8SmOpcJ3XKJMX2-30" value="manage user accounts" style="ellipse;whiteSpace=wrap;html=1;aspect=fixed;" vertex="1" parent="1">
          <mxGeometry x="710" y="-40" width="100" height="100" as="geometry" />
        </mxCell>
        <mxCell id="yw_yIX8SmOpcJ3XKJMX2-31" value="add new book" style="ellipse;whiteSpace=wrap;html=1;aspect=fixed;shadow=0;" vertex="1" parent="1">
          <mxGeometry x="720" y="168" width="102" height="102" as="geometry" />
        </mxCell>
        <mxCell id="yw_yIX8SmOpcJ3XKJMX2-32" value="maintain inventory" style="ellipse;whiteSpace=wrap;html=1;aspect=fixed;" vertex="1" parent="1">
          <mxGeometry x="530" y="368" width="102" height="102" as="geometry" />
        </mxCell>
        <mxCell id="yw_yIX8SmOpcJ3XKJMX2-33" value="update existing books" style="ellipse;whiteSpace=wrap;html=1;aspect=fixed;" vertex="1" parent="1">
          <mxGeometry x="760" y="368" width="102" height="102" as="geometry" />
        </mxCell>
        <mxCell id="yw_yIX8SmOpcJ3XKJMX2-34" value="Admin" style="rounded=0;whiteSpace=wrap;html=1;" vertex="1" parent="1">
          <mxGeometry x="960" y="10" width="120" height="60" as="geometry" />
        </mxCell>
        <mxCell id="yw_yIX8SmOpcJ3XKJMX2-35" value="" style="endArrow=classic;html=1;rounded=0;entryX=1;entryY=0.5;entryDx=0;entryDy=0;shadow=0;" edge="1" parent="1" target="yw_yIX8SmOpcJ3XKJMX2-32">
          <mxGeometry width="50" height="50" relative="1" as="geometry">
            <mxPoint x="760" y="418" as="sourcePoint" />
            <mxPoint x="810" y="368" as="targetPoint" />
          </mxGeometry>
        </mxCell>
        <mxCell id="yw_yIX8SmOpcJ3XKJMX2-36" value="" style="endArrow=classic;html=1;rounded=0;shadow=0;" edge="1" parent="1" target="yw_yIX8SmOpcJ3XKJMX2-32">
          <mxGeometry width="50" height="50" relative="1" as="geometry">
            <mxPoint x="730" y="250" as="sourcePoint" />
            <mxPoint x="780" y="200" as="targetPoint" />
          </mxGeometry>
        </mxCell>
        <mxCell id="yw_yIX8SmOpcJ3XKJMX2-37" value="" style="endArrow=classic;html=1;rounded=0;entryX=0.245;entryY=0.098;entryDx=0;entryDy=0;entryPerimeter=0;shadow=0;" edge="1" parent="1" target="yw_yIX8SmOpcJ3XKJMX2-33">
          <mxGeometry width="50" height="50" relative="1" as="geometry">
            <mxPoint x="786" y="270" as="sourcePoint" />
            <mxPoint x="836" y="220" as="targetPoint" />
          </mxGeometry>
        </mxCell>
        <mxCell id="yw_yIX8SmOpcJ3XKJMX2-38" value="" style="endArrow=classic;html=1;rounded=0;entryX=-0.01;entryY=0.44;entryDx=0;entryDy=0;entryPerimeter=0;" edge="1" parent="1" target="yw_yIX8SmOpcJ3XKJMX2-30">
          <mxGeometry width="50" height="50" relative="1" as="geometry">
            <mxPoint x="410" y="80" as="sourcePoint" />
            <mxPoint x="460" y="30" as="targetPoint" />
          </mxGeometry>
        </mxCell>
        <mxCell id="yw_yIX8SmOpcJ3XKJMX2-41" value="" style="endArrow=classic;html=1;rounded=0;entryX=1;entryY=0.5;entryDx=0;entryDy=0;" edge="1" parent="1" target="yw_yIX8SmOpcJ3XKJMX2-30">
          <mxGeometry width="50" height="50" relative="1" as="geometry">
            <mxPoint x="960" y="30" as="sourcePoint" />
            <mxPoint x="1010" y="-20" as="targetPoint" />
          </mxGeometry>
        </mxCell>
        <mxCell id="yw_yIX8SmOpcJ3XKJMX2-42" value="" style="endArrow=classic;html=1;rounded=0;entryX=0.971;entryY=0.255;entryDx=0;entryDy=0;entryPerimeter=0;" edge="1" parent="1" target="yw_yIX8SmOpcJ3XKJMX2-31">
          <mxGeometry width="50" height="50" relative="1" as="geometry">
            <mxPoint x="980" y="70" as="sourcePoint" />
            <mxPoint x="1030" y="20" as="targetPoint" />
          </mxGeometry>
        </mxCell>
        <mxCell id="yw_yIX8SmOpcJ3XKJMX2-43" value="Admin" style="rounded=0;whiteSpace=wrap;html=1;" vertex="1" parent="1">
          <mxGeometry x="920" y="530" width="120" height="60" as="geometry" />
        </mxCell>
        <mxCell id="yw_yIX8SmOpcJ3XKJMX2-44" value="calculate payments" style="ellipse;whiteSpace=wrap;html=1;aspect=fixed;" vertex="1" parent="1">
          <mxGeometry x="580" y="520" width="110" height="110" as="geometry" />
        </mxCell>
        <mxCell id="yw_yIX8SmOpcJ3XKJMX2-45" value="" style="endArrow=classic;html=1;rounded=0;entryX=0;entryY=0.5;entryDx=0;entryDy=0;" edge="1" parent="1" target="yw_yIX8SmOpcJ3XKJMX2-43">
          <mxGeometry width="50" height="50" relative="1" as="geometry">
            <mxPoint x="690" y="560" as="sourcePoint" />
            <mxPoint x="740" y="510" as="targetPoint" />
          </mxGeometry>
        </mxCell>
        <mxCell id="yw_yIX8SmOpcJ3XKJMX2-46" value="" style="endArrow=classic;html=1;rounded=0;entryX=0;entryY=0.5;entryDx=0;entryDy=0;" edge="1" parent="1" source="yw_yIX8SmOpcJ3XKJMX2-3" target="yw_yIX8SmOpcJ3XKJMX2-44">
          <mxGeometry width="50" height="50" relative="1" as="geometry">
            <mxPoint x="405" y="470" as="sourcePoint" />
            <mxPoint x="455" y="420" as="targetPoint" />
          </mxGeometry>
        </mxCell>
        <mxCell id="yw_yIX8SmOpcJ3XKJMX2-48" value="1" style="swimlane;horizontal=0;whiteSpace=wrap;html=1;" vertex="1" parent="1">
          <mxGeometry x="640" y="140" width="90" height="30" as="geometry">
            <mxRectangle x="640" y="140" width="40" height="140" as="alternateBounds" />
          </mxGeometry>
        </mxCell>
        <mxCell id="yw_yIX8SmOpcJ3XKJMX2-49" value="user accounts" style="text;html=1;align=center;verticalAlign=middle;resizable=0;points=[];autosize=1;strokeColor=none;fillColor=none;" vertex="1" parent="1">
          <mxGeometry x="640" y="138" width="100" height="30" as="geometry" />
        </mxCell>
        <mxCell id="yw_yIX8SmOpcJ3XKJMX2-50" value="" style="endArrow=classic;html=1;rounded=0;entryX=0.02;entryY=0.467;entryDx=0;entryDy=0;entryPerimeter=0;" edge="1" parent="1" target="yw_yIX8SmOpcJ3XKJMX2-49">
          <mxGeometry width="50" height="50" relative="1" as="geometry">
            <mxPoint x="590" y="150" as="sourcePoint" />
            <mxPoint x="640" y="100" as="targetPoint" />
          </mxGeometry>
        </mxCell>
        <mxCell id="yw_yIX8SmOpcJ3XKJMX2-51" value="" style="endArrow=classic;html=1;rounded=0;" edge="1" parent="1" target="yw_yIX8SmOpcJ3XKJMX2-30">
          <mxGeometry width="50" height="50" relative="1" as="geometry">
            <mxPoint x="670" y="138" as="sourcePoint" />
            <mxPoint x="720" y="88" as="targetPoint" />
          </mxGeometry>
        </mxCell>
        <mxCell id="yw_yIX8SmOpcJ3XKJMX2-52" value="login" style="ellipse;whiteSpace=wrap;html=1;aspect=fixed;" vertex="1" parent="1">
          <mxGeometry x="790" y="58" width="80" height="80" as="geometry" />
        </mxCell>
        <mxCell id="yw_yIX8SmOpcJ3XKJMX2-53" value="" style="endArrow=classic;html=1;rounded=0;" edge="1" parent="1" target="yw_yIX8SmOpcJ3XKJMX2-52">
          <mxGeometry width="50" height="50" relative="1" as="geometry">
            <mxPoint x="960" y="48" as="sourcePoint" />
            <mxPoint x="1010" y="-2" as="targetPoint" />
          </mxGeometry>
        </mxCell>
        <mxCell id="yw_yIX8SmOpcJ3XKJMX2-54" value="2" style="swimlane;horizontal=0;whiteSpace=wrap;html=1;startSize=23;" vertex="1" parent="1">
          <mxGeometry x="450" y="360" width="80" height="30" as="geometry" />
        </mxCell>
        <mxCell id="yw_yIX8SmOpcJ3XKJMX2-56" value="shopping cart" style="text;html=1;align=center;verticalAlign=middle;resizable=0;points=[];autosize=1;strokeColor=none;fillColor=none;" vertex="1" parent="1">
          <mxGeometry x="450" y="358" width="100" height="30" as="geometry" />
        </mxCell>
        <mxCell id="yw_yIX8SmOpcJ3XKJMX2-57" value="" style="endArrow=classic;html=1;rounded=0;entryX=0.65;entryY=0.1;entryDx=0;entryDy=0;entryPerimeter=0;" edge="1" parent="1" target="yw_yIX8SmOpcJ3XKJMX2-56">
          <mxGeometry width="50" height="50" relative="1" as="geometry">
            <mxPoint x="550" y="320" as="sourcePoint" />
            <mxPoint x="600" y="270" as="targetPoint" />
          </mxGeometry>
        </mxCell>
      </root>
    </mxGraphModel>
  </diagram>
</mxfile>
